<?xml version="1.0" encoding="utf-8"?>
<!-- Generator: Adobe Illustrator 24.1.3, SVG Export Plug-In . SVG Version: 6.00 Build 0)  -->
<svg version="1.0" id="图层_1" xmlns="http://www.w3.org/2000/svg" xmlns:xlink="http://www.w3.org/1999/xlink" x="0px" y="0px"
	 viewBox="0 0 1000 220" style="enable-background:new 0 0 1000 220;" xml:space="preserve">
<style type="text/css">
	.st0{fill:url(#SVGID_1_);}
	.st1{fill:url(#SVGID_2_);}
	.st2{fill:#222222;}
	.st3{fill:#5F45DD;}
	.st4{fill:#5536C6;}
	.st5{fill:#412BAD;}
</style>
<linearGradient id="SVGID_1_" gradientUnits="userSpaceOnUse" x1="256.0094" y1="146.2372" x2="560.5063" y2="-10.126">
	<stop  offset="0" style="stop-color:#5536C6"/>
	<stop  offset="1" style="stop-color:#9C69F6"/>
</linearGradient>
<path class="st0" d="M384,79.4l-27.6,9.3c-2.9-10.9-11.4-16.4-25.6-16.4c-18.7,1.8-31.9,14.7-39.8,38.7c-5.9,24.7,1.1,38,21,39.8
	c14.2,0,24.9-4.2,32.3-12.5l3.9-14.7h-35.4l5.8-21.8h60.5l-12,44.7c-13,17.5-33.8,26.4-62.2,26.7c-37.3-1.8-51.6-22.5-42.8-62.2
	c12.2-38.9,37-59.4,74.3-61.6C363.7,49.4,379.5,59.4,384,79.4z"/>
<linearGradient id="SVGID_2_" gradientUnits="userSpaceOnUse" x1="121.0167" y1="229.0665" x2="557.7461" y2="71.4562">
	<stop  offset="1.800000e-07" style="stop-color:#302082"/>
	<stop  offset="1" style="stop-color:#9C69F6"/>
</linearGradient>
<path class="st1" d="M507.3,111.6c-12.6,38.9-37.9,59.4-76,61.6c-37.2-2.2-51.7-22.7-43.5-61.6c12.5-40,38.1-60.7,76.6-62.2
	C501,51.6,515.3,72.3,507.3,111.6z M477.3,111.6c6-25.1-0.5-38.2-19.5-39.3c-19.9,1.1-33.8,14.2-41.6,39.3
	c-5.9,24.7,0.8,37.6,20.2,38.7C456.5,150,470.1,137.1,477.3,111.6z"/>
<path class="st2" d="M564.3,129.1h-20.2l-11.3,42h-27.3l32.1-120h50.2c28.9,0.7,40.6,13.3,35.2,37.6
	C616.1,116,596.5,129.4,564.3,129.1z M577.4,71.8h-18l-9.8,36.5h18c14.3-0.4,23.2-6.5,26.8-18.5C597.2,78.2,591.5,72.2,577.4,71.8z"
	/>
<path class="st2" d="M728.6,171h-30l-1.7-26.2h-45.8L635.4,171h-29.4l76.9-120h32.7L728.6,171z M697.6,124.1l-4.2-41.4
	c-0.1-3.6-0.1-7.1,0-10.4h-0.5c-1.4,4-3.3,7.6-5.6,10.9l-24.6,40.9H697.6z"/>
<path class="st2" d="M743.6,133.4l28.2-5.5c-2.3,16.7,4.5,25.1,20.5,25.1c12.1-0.4,19.8-5.3,23-14.7c2.1-6.5-0.7-11.6-8.5-15.3
	c-8.2-3.3-15.6-5.5-22.2-6.5c-20.9-4.7-28.5-16.4-22.8-34.9c7.5-20,25.1-30.7,52.8-32.2c28.9-0.7,42.6,10.5,41.1,33.8l-28,4.9
	c1.3-11.6-4.6-17.5-17.7-17.5c-10.6,0.4-17.3,4.2-20,11.5c-2.5,6.5,3.3,11.5,17.3,14.7c10.9,2.5,19.5,5.8,25.7,9.8
	c10.8,7.3,14.6,17.5,11.4,30.5c-7.3,23.3-26.4,35.3-57.1,36C756.8,173.6,742.2,160.3,743.6,133.4z"/>
<path class="st2" d="M854.9,133.4L883,128c-2.3,16.7,4.5,25.1,20.5,25.1c12.1-0.4,19.8-5.3,23-14.7c2.1-6.5-0.7-11.6-8.5-15.3
	c-8.2-3.3-15.6-5.5-22.2-6.5c-20.9-4.7-28.5-16.4-22.8-34.9c7.5-20,25.1-30.7,52.8-32.2c28.9-0.7,42.6,10.5,41.1,33.8l-28,4.9
	c1.3-11.6-4.6-17.5-17.7-17.5c-10.6,0.4-17.3,4.2-20,11.5c-2.5,6.5,3.3,11.5,17.3,14.7c10.9,2.5,19.5,5.8,25.7,9.8
	c10.8,7.3,14.6,17.5,11.4,30.5c-7.3,23.3-26.4,35.3-57.1,36C868.1,173.6,853.5,160.3,854.9,133.4z"/>
<path class="st2" d="M984.9,171h-28.4l7.3-27.3h28.4L984.9,171z"/>
<g>
	<g>
		<polygon class="st3" points="207.3,110.5 132.3,135.4 107.4,210.4 82.4,135.4 7.4,110.5 82.4,85.6 107.4,10.6 132.3,85.6 		"/>
	</g>
	<g>
		<polygon class="st4" points="7.4,110.5 207.3,110.5 132.3,135.4 107.4,210.4 82.4,135.4 		"/>
	</g>
	<g>
		<polygon class="st5" points="107.4,210.4 82.4,135.4 7.4,110.5 107.4,110.5 		"/>
	</g>
	<g>
		<polygon class="st4" points="107.4,10.7 82.4,85.7 7.4,110.7 107.4,110.7 		"/>
	</g>
</g>
</svg>
