<?xml version="1.0" encoding="utf-8"?>
<!-- Generator: Adobe Illustrator 24.1.3, SVG Export Plug-In . SVG Version: 6.00 Build 0)  -->
<svg version="1.0" id="图层_1" xmlns="http://www.w3.org/2000/svg" xmlns:xlink="http://www.w3.org/1999/xlink" x="0px" y="0px"
	 viewBox="0 0 500 500" style="enable-background:new 0 0 500 500;" xml:space="preserve">
<style type="text/css">
	.st0{fill:#5F45DD;}
	.st1{fill:#5536C6;}
	.st2{fill:#412BAD;}
</style>
<g>
	<g>
		<polygon class="st0" points="452.3,249.6 300.4,300.1 249.9,451.9 199.4,300.1 47.5,249.6 199.4,199.1 249.9,47.2 300.4,199.1 		
			"/>
	</g>
	<g>
		<polygon class="st1" points="47.5,249.6 452.3,249.6 300.4,300.1 249.9,451.9 199.4,300.1 		"/>
	</g>
	<g>
		<polygon class="st2" points="249.9,451.9 199.4,300.1 47.5,249.6 249.9,249.6 		"/>
	</g>
	<g>
		<polygon class="st1" points="249.9,47.6 199.4,199.4 47.5,249.9 249.9,249.9 		"/>
	</g>
</g>
<g>
	<g>
		<polygon class="st0" points="452.3,249.6 300.4,300.1 249.9,451.9 199.4,300.1 47.5,249.6 199.4,199.1 249.9,47.2 300.4,199.1 		
			"/>
	</g>
	<g>
		<polygon class="st1" points="47.5,249.6 452.3,249.6 300.4,300.1 249.9,451.9 199.4,300.1 		"/>
	</g>
	<g>
		<polygon class="st2" points="249.9,451.9 199.4,300.1 47.5,249.6 249.9,249.6 		"/>
	</g>
	<g>
		<polygon class="st1" points="249.9,47.6 199.4,199.4 47.5,249.9 249.9,249.9 		"/>
	</g>
</g>
</svg>
