<?xml version="1.0" encoding="utf-8"?>
<!-- Generator: Adobe Illustrator 22.0.0, SVG Export Plug-In . SVG Version: 6.00 Build 0)  -->
<svg version="1.1" id="图层_1" xmlns="http://www.w3.org/2000/svg" xmlns:xlink="http://www.w3.org/1999/xlink" x="0px" y="0px"
	 viewBox="0 0 600 675.6" style="enable-background:new 0 0 600 675.6;" xml:space="preserve">
<style type="text/css">
	.st0{fill:#DFEBF9;}
	.st1{fill:#F77D48;}
	.st2{fill:none;stroke:#FFFFFF;stroke-width:4.7644;stroke-linecap:round;}
	.st3{fill:none;stroke:#FFFFFF;stroke-width:5;stroke-linecap:round;}
	.st4{fill:none;stroke:#FFC700;stroke-width:15;stroke-linecap:round;}
	.st5{fill:none;stroke:#FFB905;stroke-width:15;stroke-linecap:round;}
	.st6{fill:none;stroke:#7432FF;stroke-width:13;}
	.st7{fill:none;stroke:#7432FF;stroke-width:40;}
	.st8{fill:none;stroke:#7432FF;stroke-width:43;}
	.st9{fill:#7432FF;}
	.st10{fill:none;stroke:#2039D2;stroke-width:9.8833;}
	.st11{fill:none;stroke:#2039D2;stroke-width:6.7895;}
	.st12{fill:none;stroke:#2039D2;stroke-width:6;}
	.st13{fill:none;stroke:#23B782;stroke-width:5;stroke-linecap:round;}
	.st14{fill:none;stroke:#FFC700;stroke-width:5;stroke-linecap:round;}
	.st15{fill:none;stroke:#000000;stroke-width:5;stroke-linecap:round;}
	.st16{fill:none;stroke:#000000;stroke-width:14.2933;}
	.st17{fill:#FFC700;}
	.st18{fill:none;stroke:#000000;stroke-width:11;}
	.st19{fill:none;stroke:#FFFFFF;stroke-width:11;}
	.st20{opacity:0.54;fill:#7436FE;}
	.st21{fill:none;stroke:#000000;stroke-width:7;}
	.st22{fill:#6322EE;}
	.st23{fill:#FF6B6B;}
	.st24{fill:#E34545;}
	.st25{fill:#00C472;}
	.st26{fill:#07A358;}
	.st27{fill:none;stroke:#000000;stroke-width:5;}
	.st28{fill:#FF7D05;}
	.st29{fill:none;stroke:#7432FF;stroke-width:10;stroke-linecap:round;}
	.st30{fill:#A8D29F;}
</style>
<g>
	<path class="st0" d="M413,28.6c17.3-39.1,84.2-15.8,84.2-15.8s35.8,78.5,49.2,82.3c13.3,3.8-17.5-73.1-17.5-73.1
		c26.7,1.5,88.9,44,88.9,44s-17,82.6-3.1,83c13.9,0.4,11.3-73.9,11.3-73.9c24.3,11.5,43.6,44.9,43.6,44.9
		c22.3,53-46.9,78.9-46.9,78.9s-5.3,28.8,7.5,64.6v0c0,0,3.1,6.7,5.6,17.8l-7-1.1c-0.3-2-0.6-3.8-1.1-5.7c0,0,0,0,0,0
		c0,0,0-0.1,0-0.1c-0.3-1.1-0.8-2.8-1.3-4.8c0,0,0,0,0,0c0,0,0,0,0,0c-1.5-4.5-2.5-7.8-3-10.1c0,0,0,0,0,0
		c-4.4-14-10.9-32.4-16.5-36.9c0,0,0.9-1,2-3c-0.6,0.9-1.3,1.9-2,3c-15.8,23.7-75.9,18.8-108.1,7c-32.1-11.9-16.2-19,3.9-31.5
		c20.2-12.4,57-2.7,68.9-7c12-4.3-3.3-12.7-25.6-14.4c-22.4-1.7-36.8,18.7-73,16.7c-36.2-2.1-53.2-73.4-53.2-73.4
		c23.5,11.4,69.8,4.6,72.8-3.7c3-8.2-62.6-17.4-72.4-21.5C410.4,90.8,395.7,67.7,413,28.6z"/>
</g>
<g>
	<path class="st1" d="M193.5,242.2c-0.5-0.2-0.9-0.6-1-1.2c-0.4-3.1-0.9-6.3-1.4-9.3c-0.1-0.8,0.4-1.5,1.2-1.6
		c0.8-0.1,1.5,0.4,1.6,1.2c0.5,3.1,1,6.3,1.4,9.4c0.1,0.8-0.4,1.5-1.2,1.6C193.9,242.2,193.7,242.2,193.5,242.2z M190.3,223.4
		c-0.5-0.2-0.8-0.5-0.9-1.1c-0.6-3.1-1.3-6.2-2.1-9.2c-0.2-0.8,0.3-1.5,1-1.7c0.8-0.2,1.5,0.3,1.7,1c0.7,3,1.5,6.2,2.1,9.3
		c0.2,0.8-0.3,1.5-1.1,1.7C190.8,223.5,190.6,223.5,190.3,223.4z M185.8,205c-0.4-0.1-0.8-0.5-0.9-1c-0.9-3.1-1.8-6.1-2.8-9
		c-0.3-0.7,0.1-1.6,0.9-1.8c0.7-0.3,1.6,0.1,1.8,0.9c1,3,2,6,2.9,9.1c0.2,0.8-0.2,1.5-1,1.8C186.4,205.1,186.1,205.1,185.8,205z
		 M70.6,165c-0.4-0.1-0.7-0.3-1.1-0.4c-0.7-0.3-1.1-1.1-0.8-1.8c0.3-0.7,1.1-1.1,1.8-0.8c2.5,1,5.5,1.6,8.8,1.8
		c0.8,0.1,1.4,0.7,1.3,1.5c-0.1,0.8-0.7,1.4-1.5,1.3C76,166.4,73.1,165.8,70.6,165z M62,159.1c-0.3-0.1-0.5-0.3-0.7-0.5
		c-1.9-2.7-2.9-6-2.8-9.8c0-0.8,0.7-1.4,1.4-1.4c0.8,0,1.4,0.7,1.4,1.4c0,3.2,0.7,5.9,2.3,8.1c0.5,0.6,0.3,1.5-0.3,2
		C62.9,159.1,62.4,159.2,62,159.1z M88.3,166.2c-0.5-0.2-0.9-0.6-1-1.2c-0.1-0.8,0.5-1.5,1.3-1.6c3-0.3,6-0.9,9.2-1.7
		c0.8-0.2,1.5,0.3,1.7,1c0.2,0.8-0.3,1.5-1,1.7c-3.2,0.8-6.4,1.4-9.5,1.7C88.7,166.3,88.5,166.3,88.3,166.2z M179.7,187.1
		c-0.4-0.1-0.7-0.4-0.9-0.8c-1.2-2.9-2.4-5.9-3.7-8.6c-0.3-0.7,0-1.6,0.7-1.9c0.7-0.3,1.6,0,1.9,0.7c1.3,2.8,2.6,5.8,3.8,8.8
		c0.3,0.7-0.1,1.6-0.8,1.9C180.3,187.2,180,187.2,179.7,187.1z M106.7,161.7c-0.4-0.1-0.7-0.4-0.9-0.9c-0.3-0.7,0.1-1.6,0.8-1.8
		c2.9-1.1,5.8-2.3,8.6-3.7c0.7-0.3,1.6-0.1,1.9,0.6c0.3,0.7,0.1,1.6-0.6,1.9c-2.9,1.4-5.8,2.7-8.9,3.8
		C107.3,161.9,107,161.8,106.7,161.7z M61.2,140.8C61.2,140.8,61.2,140.8,61.2,140.8c-0.8-0.3-1.2-1.1-0.9-1.8
		c1.1-3.1,2.6-6.1,4.5-8.8c0.4-0.6,1.3-0.8,2-0.4c0.6,0.5,0.8,1.3,0.4,2c-1.7,2.5-3.1,5.2-4.1,8.1C62.8,140.7,62,141.1,61.2,140.8z
		 M171.6,169.9c-0.3-0.1-0.6-0.3-0.8-0.7c-1.5-2.8-3.1-5.5-4.7-8.1c-0.4-0.7-0.2-1.5,0.4-2c0.7-0.4,1.5-0.2,2,0.4
		c1.7,2.6,3.3,5.4,4.8,8.3c0.4,0.7,0.1,1.6-0.6,1.9C172.4,170,172,170,171.6,169.9z M123.7,153.3c-0.3-0.1-0.6-0.3-0.7-0.6
		c-0.4-0.7-0.2-1.5,0.4-2c2.7-1.8,5.2-3.7,7.4-5.6c0.6-0.5,1.5-0.5,2,0.1c0.5,0.6,0.5,1.5-0.1,2c-2.3,2.1-4.9,4-7.7,5.9
		C124.5,153.4,124.1,153.4,123.7,153.3z M72,125.5c-0.2-0.1-0.5-0.2-0.7-0.5c-0.5-0.6-0.4-1.5,0.2-2c2.5-2,5.3-3.8,8.4-5.1
		c0.7-0.3,1.6,0,1.9,0.7c0.3,0.7,0,1.6-0.7,1.9c-2.8,1.3-5.4,2.9-7.8,4.8C72.9,125.5,72.4,125.6,72,125.5z M161.5,153.8
		c-0.3-0.1-0.5-0.3-0.7-0.5c-1.9-2.5-3.8-5-5.8-7.3c-0.5-0.6-0.5-1.5,0.1-2c0.6-0.5,1.5-0.5,2,0.1c2.1,2.4,4.1,4.9,6,7.5
		c0.5,0.6,0.3,1.5-0.3,2C162.4,153.9,162,154,161.5,153.8z M137.6,140.5c-0.1,0-0.3-0.1-0.4-0.2c-0.6-0.5-0.8-1.4-0.3-2
		c1.9-2.6,3.3-5.3,4.3-8c0.3-0.7,1.1-1.1,1.8-0.9c0,0,0,0,0,0c0.7,0.2,1.1,1,0.9,1.7c2.3,1.8,4.5,3.8,6.7,5.9c0.6,0.5,0.6,1.4,0,2
		c-0.5,0.6-1.4,0.6-2,0c-1.9-1.8-3.8-3.5-5.8-5.2c-0.9,2-2.1,4-3.6,6C138.8,140.5,138.2,140.7,137.6,140.5z M89,117.6
		c-0.5-0.2-0.8-0.5-0.9-1.1c-0.2-0.8,0.3-1.5,1.1-1.7c3.1-0.6,6.4-1,9.7-1c0.8,0,1.4,0.6,1.4,1.4c0,0.8-0.6,1.4-1.4,1.4
		c-3.1,0-6.2,0.3-9.2,0.9C89.5,117.7,89.3,117.7,89,117.6z M134.2,127.7c-0.1,0-0.2-0.1-0.3-0.1c-2.7-1.7-5.4-3.2-8.2-4.5
		c-0.7-0.3-1-1.2-0.7-1.9c0.3-0.7,1.2-1,1.9-0.7c2.8,1.4,5.7,2.9,8.4,4.7c0.7,0.4,0.9,1.3,0.4,2
		C135.5,127.7,134.9,127.9,134.2,127.7z M107.9,117.4c-0.7-0.2-1.1-0.9-1-1.6c0.1-0.8,0.9-1.3,1.6-1.2c3.1,0.5,6.3,1.3,9.4,2.3
		c0,0,0,0,0,0c0.7,0.2,1.1,1,0.9,1.8c-0.2,0.7-1,1.2-1.8,0.9c-3-1-6-1.7-9-2.2C108.1,117.4,108,117.4,107.9,117.4z M143.4,122.9
		c-0.5-0.2-0.9-0.7-1-1.3c-0.1-1.7-0.4-3.4-0.9-5c-0.4-1.2-0.8-2.5-1.3-3.7c-0.3-0.7,0.1-1.6,0.8-1.8c0.7-0.3,1.6,0.1,1.8,0.8
		c0.5,1.3,0.9,2.6,1.3,3.9c0.6,1.9,0.9,3.8,1,5.7c0.1,0.8-0.5,1.5-1.3,1.5C143.7,122.9,143.5,122.9,143.4,122.9z M137.1,105.1
		c-0.3-0.1-0.6-0.3-0.8-0.7c-1.5-2.6-3.2-5.2-5.1-7.8c-0.5-0.6-0.3-1.5,0.3-2c0.6-0.5,1.5-0.3,2,0.3c2,2.7,3.7,5.4,5.3,8.1
		c0.4,0.7,0.1,1.6-0.5,1.9C137.8,105.2,137.4,105.2,137.1,105.1z M15.5,57.3c-0.4-0.1-0.7-0.4-0.8-0.8c-0.3-0.7,0-1.6,0.7-1.9
		c2.4-1.1,5-2.1,7.6-2.9c0.8-0.2,1.5,0.2,1.8,1c0.2,0.8-0.2,1.5-1,1.8c-2.5,0.8-5,1.7-7.3,2.7C16.2,57.4,15.9,57.5,15.5,57.3z
		 M125.9,89.8c-0.2-0.1-0.4-0.2-0.6-0.4c-2.1-2.3-4.3-4.5-6.6-6.6c-0.6-0.5-0.6-1.4-0.1-2c0.5-0.6,1.4-0.6,2-0.1
		c2.4,2.2,4.7,4.5,6.8,6.8c0.5,0.6,0.5,1.5-0.1,2C126.9,89.9,126.3,90,125.9,89.8z M32.3,52.5c-0.5-0.2-0.9-0.6-1-1.1
		c-0.1-0.8,0.4-1.5,1.2-1.6c3.1-0.5,6.4-0.7,9.6-0.8c0.8,0,1.4,0.6,1.5,1.4c0,0.8-0.6,1.4-1.4,1.5c-3.2,0.1-6.3,0.3-9.3,0.8
		C32.7,52.6,32.5,52.5,32.3,52.5z M111.9,77c-0.1,0-0.3-0.1-0.4-0.2c-2.4-1.9-5-3.7-7.6-5.5c-0.7-0.4-0.8-1.3-0.4-2
		c0.4-0.7,1.3-0.8,2-0.4c2.7,1.8,5.3,3.6,7.8,5.6c0.6,0.5,0.7,1.4,0.3,2C113.1,77,112.4,77.2,111.9,77z M51.2,52
		c-0.6-0.2-1-0.8-1-1.5c0.1-0.8,0.8-1.4,1.5-1.3c3.1,0.3,6.3,0.7,9.5,1.4c0.8,0.2,1.3,0.9,1.1,1.7c-0.1,0.8-0.9,1.3-1.7,1.1
		c-3.1-0.6-6.2-1-9.3-1.3C51.4,52.1,51.3,52.1,51.2,52z M96.1,66.5c-0.1,0-0.2-0.1-0.2-0.1c-2.7-1.5-5.5-3-8.4-4.3
		c-0.7-0.3-1-1.2-0.7-1.9c0.3-0.7,1.2-1,1.9-0.7c2.9,1.3,5.8,2.8,8.6,4.4c0.7,0.4,0.9,1.3,0.5,1.9C97.4,66.5,96.7,66.7,96.1,66.5z
		 M69.8,55.6c-0.7-0.2-1.1-1-0.9-1.7c0.2-0.8,1-1.2,1.8-1c3,0.9,6.1,1.9,9.1,3c0.7,0.3,1.1,1.1,0.8,1.8c-0.3,0.7-1.1,1.1-1.8,0.8
		C75.9,57.4,72.9,56.4,69.8,55.6C69.9,55.6,69.8,55.6,69.8,55.6z"/>
</g>
<path class="st2" d="M560.8-149.7c2.4-6.2,5.1-23.7-14.9-20.3c-16.5,2.8-16.9-12.7-14.9-20.7"/>
<path class="st2" d="M187.6,457.7c1.1-2.2,2.7-8.7-4.9-8.1c-6.3,0.5-5.9-5.3-4.9-8.2"/>
<path class="st3" d="M291.5,650.1c1.8-3.7,4.4-14.4-8.2-13.3c-10.3,0.9-9.8-8.8-8.2-13.6"/>
<path class="st2" d="M465.4,392.4c1.8-3.6,4.7-13.3-5.7-9.4c-8.6,3.3-7.4-5.1-5.7-9.6"/>
<path class="st4" d="M407.4,394.5c3.6-7.2,9.6-26.9-11.5-18.9c-17.3,6.6-14.9-10.3-11.4-19.4"/>
<path class="st4" d="M358.1,256c2.1-4.3,5.7-15.8-6.8-11.1c-10.2,3.9-8.8-6-6.7-11.4"/>
<path class="st5" d="M192.3,412.1c1.4-2.8,3.7-10.5-4.5-7.4c-6.8,2.6-5.8-4-4.5-7.6"/>
<path class="st4" d="M171.4,297.3c5.1-10.3,13.7-38.4-16.4-26.9c-24.7,9.4-21.3-14.6-16.3-27.6"/>
<path class="st2" d="M82.7,366.4c1.8-3.6,4.8-13.3-5.7-9.4c-8.6,3.3-7.4-5.1-5.7-9.6"/>
<path class="st2" d="M56,525.7c1.9-5.2,3.9-20.2-13.2-17.2c-14,2.4-14.7-10.8-13.2-17.6"/>
<path class="st2" d="M524.9,528.4c2-5,4.3-19.4-12.1-16.8c-13.5,2.1-13.8-10.6-12.1-17.2"/>
<path class="st6" d="M117.9,636.6c-32.5,0-58.8-26.3-58.8-58.8c0-32.5,26.3-58.8,58.8-58.8c32.5,0,58.8,26.3,58.8,58.8
	C176.6,610.3,150.3,636.6,117.9,636.6z"/>
<path class="st7" d="M244.1,412.5c-49.1,0-89-39.8-89-89s39.8-89,89-89c49.1,0,89,39.8,89,89S293.2,412.5,244.1,412.5z"/>
<path class="st8" d="M78.3,325.1c-10.3,0-18.6-8.3-18.6-18.6c0-10.3,8.3-18.6,18.6-18.6c10.3,0,18.6,8.3,18.6,18.6
	C97,316.7,88.6,325.1,78.3,325.1z"/>
<path class="st9" d="M539.5,469.1c-27.8,0-50.3-22.5-50.3-50.3c0-27.8,22.5-50.3,50.3-50.3c27.8,0,50.3,22.5,50.3,50.3
	C589.8,446.6,567.3,469.1,539.5,469.1z"/>
<path class="st10" d="M171.4,377.9c-1.1,0-2-0.9-2-2c0-1.1,0.9-2,2-2c1.1,0,2,0.9,2,2C173.4,377.1,172.5,377.9,171.4,377.9z"/>
<path class="st11" d="M317.4,449.1c-0.9,0-1.6-0.7-1.6-1.6s0.7-1.6,1.6-1.6c0.9,0,1.6,0.7,1.6,1.6S318.3,449.1,317.4,449.1z"/>
<path class="st12" d="M368.9,297c-1.6,0-2.9-1.3-2.9-2.9c0-1.6,1.3-2.9,2.9-2.9c1.6,0,2.9,1.3,2.9,2.9
	C371.8,295.7,370.5,297,368.9,297z"/>
<path class="st13" d="M386.8,191.6l13.4,14.5l13.5,14.5"/>
<path class="st13" d="M352.9,169.8l50.4,54.2"/>
<path class="st13" d="M366,199.1l41.6,45.6"/>
<path class="st14" d="M427.2,435.5l14,15.1l14,15"/>
<path class="st14" d="M413.6,437.4l66.7,71.4"/>
<path class="st15" d="M3.9,359.6L104.1,470"/>
<path class="st15" d="M27.6,409.5l83.3,93.3"/>
<path class="st16" d="M394.5,267.1c-1.7,0-3.1-1.4-3.1-3.1c0-1.7,1.4-3.1,3.1-3.1c1.7,0,3.1,1.4,3.1,3.1
	C397.6,265.7,396.2,267.1,394.5,267.1z"/>
<path class="st17" d="M467.2,62.8c-7.2,0-13.1-5.9-13.1-13.1c0-7.2,5.9-13.1,13.1-13.1c7.2,0,13.1,5.9,13.1,13.1
	C480.3,57,474.4,62.8,467.2,62.8z"/>
<path class="st18" d="M243.9,186.9c-6.3,0-11.4-5.1-11.4-11.4c0-6.3,5.1-11.4,11.4-11.4c6.3,0,11.4,5.1,11.4,11.4
	C255.3,181.8,250.2,186.9,243.9,186.9z"/>
<path class="st18" d="M136.8,392.6c-2.4,0-4.3-1.9-4.3-4.3s1.9-4.3,4.3-4.3s4.3,1.9,4.3,4.3S139.1,392.6,136.8,392.6z"/>
<path class="st19" d="M64.6,227.2c-2.4,0-4.3-1.9-4.3-4.3s1.9-4.3,4.3-4.3s4.3,1.9,4.3,4.3S67,227.2,64.6,227.2z"/>
<path class="st20" d="M231.3,101.5c-4,0-7.2-3.2-7.2-7.2c0-4,3.2-7.2,7.2-7.2s7.2,3.2,7.2,7.2C238.5,98.3,235.3,101.5,231.3,101.5z"
	/>
<path class="st16" d="M599.8,342.3c-10.3,0-18.7-8.4-18.7-18.7s8.4-18.7,18.7-18.7c10.3,0,18.7,8.4,18.7,18.7
	S610.2,342.3,599.8,342.3z"/>
<path class="st21" d="M255.1,531c-3.5,0-6.3-2.8-6.3-6.3c0-3.5,2.8-6.3,6.3-6.3c3.5,0,6.3,2.8,6.3,6.3
	C261.4,528.2,258.6,531,255.1,531z"/>
<path class="st9" d="M307.9,562.2h135.1v117.2H307.9V562.2z"/>
<path class="st9" d="M449.4,631.7h126.1v39.9H449.4V631.7z"/>
<path class="st9" d="M126,611.8h170.5v54H126V611.8z"/>
<path class="st15" d="M299.1,559.2h146.7v69.7h122.7v45.4H130v-68.7h169.1V559.2L299.1,559.2z"/>
<path class="st22" d="M442.8,654.6l-96.9-91.9h96.9V654.6z"/>
<path class="st23" d="M388.4,427.8c-3.1-44.3-28.1-52.8-42.3-54.3l-18.9,50.9c3.8-0.2,12,0.8,14,6.2c2.5,6.7-13.3,41.7-20.4,68.8
	c-1.3,5-3.3,12.9-3.3,12.9l57.3-14.8C371.6,487.9,385.9,466.1,388.4,427.8z"/>
<path class="st23" d="M227.3,503.7c8.5-5.5,18.6-21.3,22.5-28.6l-41.7-24.2c-2.4,6.3-12.7,24.8-35,48c-22.3,23.2-31,56.2-32.5,69.9
	c18.2-6.1,54.6-18.6,54.6-19.6C197.1,535.8,216.7,510.6,227.3,503.7z"/>
<path class="st24" d="M206.9,454.2c0,0,61.7,15.8,31.5,17.2c-20.2,4.8-20.2-6.8-42.3,0C196.1,471.5,203.9,459.5,206.9,454.2z"/>
<path class="st24" d="M328.5,424.4l13.3-38.4c-1.3,6.2-3.7,18.6-0.3,27.1c2.7,6.7,5.1,12.7-0.5,23.1c0,0,1-3.5-0.8-7.2
	C337.8,425.5,334.1,425,328.5,424.4z"/>
<path class="st24" d="M208.9,504.7c4.8,4,10.8,2.5,13.3,1.3c-3.4,3.7-10.7,11.2-13.3,11.1C205.8,517,208.3,504.7,208.9,504.7z"/>
<path class="st25" d="M325.5,433l20.7-59.6c0,0-30.7-0.8-41.9-4.8c-5.4-0.7-1.6-5.6-2.5-6.8c-19.9-7.3-66.3,4.3-66.3,4.3l-40.3,81.7
	l55.1,30.5c5.9-18,20.1-58.2,25.5-59.9C281.1,416.7,311.2,427.4,325.5,433z"/>
<path class="st26" d="M232.3,407.2c6.9-2.7,21.5-12.2,24.3-28.7L232.3,407.2z"/>
<path class="st15" d="M255.9,383.1c0,0-4.9,13.6-19,22.6"/>
<path class="st15" d="M282.3,412.5c0,0-12.3,7.6-18.2,23.3"/>
<path class="st15" d="M193.6,447.1c0,0,19.1,9.1,39.2,21.4"/>
<path class="st15" d="M331.3,411.1c0,0,7.3-19.8,17.7-40.9"/>
<path class="st15" d="M272.5,375l-7.9,9.6"/>
<path class="st15" d="M291.6,374l4.7,11.5"/>
<path class="st15" d="M295.6,410.9l12.3-2"/>
<path class="st15" d="M318.5,380.9l10.1,7.2"/>
<path class="st15" d="M254.5,397.5l6.9,10.3"/>
<path class="st15" d="M229.5,411.7l-8.9,8.6"/>
<path class="st15" d="M251.8,427.3l-3.6,11.9"/>
<path class="st15" d="M214.9,433.2l-3.6,11.9"/>
<path class="st15" d="M250.1,458.7l-12.4,0.3"/>
<path class="st15" d="M235.2,433.2l-12.4,0.3"/>
<path d="M313.7,549.6c-1.5-11.8,1.6-31.9,3.6-38.3l57.1-15.7c0.2,0.8,0.8,2.9,1.9,5.4c1.3,3.2,8.2,11.7,26.4,20.7
	c14.6,7.2,23.5,22.1,26.3,28.3C387.6,549.6,313.7,550.7,313.7,549.6z"/>
<path d="M136.8,600c-1.5-11.8,2.8-31.1,4.8-37.4l53.9-14.4c0.2,0.8,0.3,3.1,1.9,5.4c3.4,5.1,11.4,10.5,29.6,19.5
	c14.6,7.2,23.7,20.8,26.5,27C214.8,599.1,136.8,600,136.8,600z"/>
<path class="st15" d="M347.8,423.2c-3,3.8-9.9,13.6-13.2,22.2"/>
<path class="st15" d="M241.4,493.3c-8.2,9.6-17,14.6-30.3,18.9"/>
<path class="st15" d="M378.6,383.1c6.7,14.4,8.3,27,6.9,44.1"/>
<path class="st15" d="M173.7,494c-15.6,18.7-23.6,36.1-30.1,60.4"/>
<path class="st27" d="M196.3,555.6c3.9-8.3,12.8-23.8,17.3-19.2C218,540.9,203.9,551.1,196.3,555.6z"/>
<path class="st27" d="M195.2,555.6c7-5.9,21.6-16.2,23.7-10.3S204,554.7,195.2,555.6z"/>
<path class="st27" d="M377,508.4c3.9-8.3,12.8-23.8,17.3-19.2C398.7,493.8,384.6,503.9,377,508.4z"/>
<path class="st27" d="M376,508.4c7-5.9,21.6-16.2,23.7-10.3C401.8,504.2,384.7,507.5,376,508.4z"/>
<path class="st23" d="M316.7,255.7c1.1,8-7.3,14.2-11.7,14.5c-1.1,3.2-3.2,10.2-2.8,11.9c0.4,1.7,9.8,6.9,14.4,9.2
	c-0.8,1.1-5.3,4.3-16.7,7.3c-23.2,4.4-31.4-13.7-31.4-14.6c21.8-10.1,19.4-21,19.4-21.8c-0.4,0-5.4-3.2-6.3-6.8
	c-0.9-3.5-1.1-7-1.1-7s0.6-5.2,1.8-8.2c1.7-4.2,11.1-8.8,16.3-8.8c5.2,0,8.6,3.5,11.9,8.8C314,246.1,315.6,247.7,316.7,255.7z"/>
<path class="st24" d="M288.4,262.4c1.6,0.1,2.5-0.6,2.8-0.9c0,0.4-0.1,1.4-0.8,1.5C289.7,263.2,288.8,262.7,288.4,262.4z"/>
<path class="st24" d="M286.1,255.2c1.9-0.3,3.6,1.2,4.2,2c0,0-2-1-3.4-1.1c-1.3-0.1-2.2,0.8-2.2,0.8
	C284.7,256.5,285,255.4,286.1,255.2z"/>
<path class="st15" d="M307.6,257c0,0,3.4-1.1,3.4-2.9c0-1.1-3.8-6.9-3.8-6.9"/>
<path class="st24" d="M292.3,265.3c5.2,4,12.1,4.6,12.6,4.9l-2.2,7.4L292.3,265.3z"/>
<path d="M300.5,250.6c-0.4-0.7-0.4-1.5,0-1.7c0.4-0.2,1.1,0.1,1.5,0.8c0.4,0.7,0.4,1.5,0,1.7C301.5,251.7,300.9,251.3,300.5,250.6z"
	/>
<path d="M310.4,247c-0.2-0.8,0.1-1.5,0.5-1.6c0.5-0.1,1,0.4,1.2,1.2c0.2,0.8-0.1,1.5-0.5,1.6C311.1,248.4,310.6,247.8,310.4,247z"/>
<path class="st15" d="M303.8,270.1c-2.6-0.6-8.5-2.4-11.4-4.6"/>
<path d="M307.7,236.6c5.7-3.2,9.6-18.2-2.9-20.5c-4.5-0.8-6.3,3.1-6.5,5.2c-0.9-1-4.2-2.4-6.3,0c-1.6,2.2-2,4.7-2,5.6
	c-5.4,3-13.4,9.8-13.4,19.2c0,9.4,10.6,16.2,11.6,16.5c0-0.5-4.2-2-4.7-5.6c-0.5-3.5,4.2-4.2,5.7-3.6c0,0,0,0,0.1,0c0,0,0,0-0.1,0
	c-0.6-0.6-4.4-7.1-4.4-7.3C284.4,246.2,302,239.8,307.7,236.6z"/>
<path class="st23" d="M338.7,310.8c6.9,6.5,21.8,19.4,26.6,19.4c22.4-3.2,34.5-55.5,38.6-54.7c4.6,0.9,1.6,17.8,1.4,18.4
	c-0.2,0.6,0,2.2,1.7,2.2c1.7,0,9.7-5.8,12.4-6c3.4-0.3,2.5,4.9,4.5,6c2,1.1,1.1,2.9,0,4.6l1.1,2c0.8,0.3,2.5,1.4,2.5,3.1
	c0,2.2-1.5,3.4,0,5.1c2.9,1.9,1.2,5.2,0,6.7l-25.4,9.1c-7.6,10.9-26,33-38.2,33.8c-12.3,0.7-28.5-16.7-35.1-25.5L338.7,310.8z"/>
<path class="st24" d="M328.7,335.6c-0.2-0.2-0.4-0.5-0.7-0.7C328,334.9,328.3,335.2,328.7,335.6c13.2,14.4,29.3,34.7,46.3,19.8
	c-5.1,1-11,4.3-25.7-4.3C337.2,344.1,330.7,337.7,328.7,335.6z"/>
<path class="st23" d="M194.7,360.7c-19.6-33.2,11.1-50.9,32.6-57.3l8.2,21.9c-7.2,2.4-22.1,9.2-23.8,17.8
	c-2.1,10.7,20,23.5,22.9,24.4c2.8,0.9,19.1,1.7,19.9,4.8c0.7,2.4-8.2,3.8-12.7,4.2c1.9,1.2,5.9,3.7,6.8,4.5c1.1,1,0.4,3.7-1.6,4.5
	c-1.5,0.6-2.4,1.8-2.6,2.4c0.3,0.8,0.8,2.8,0,4.2c-1,1.7-3.5,1-4,3.8c-0.6,2.9-4.4,2.9-5.3,3.5c-0.9,0.6,0.5,3.9-3,3.2
	C221.1,398.5,202.5,373.2,194.7,360.7z"/>
<path class="st15" d="M231.3,393.3L229,392"/>
<path class="st15" d="M234.7,389l-2.4-1.3"/>
<path class="st15" d="M238.4,384.4l-2.4-1.3"/>
<path class="st24" d="M213.1,349.8c-3.2-5.1-0.9-9.1,0.1-10.5c-2.6,1.4-7.1,5.9-4.2,11.6c2.9,5.7,14.4,11.5,19.8,13.6
	C225,361.7,216.3,354.8,213.1,349.8z"/>
<path class="st15" d="M217,336.6c-1.9,0.9-6.4,3.3-9.3,5.9"/>
<path class="st15" d="M357.7,333.3c2.1-0.4,7.4-1.8,11.2-4.3"/>
<path class="st15" d="M403,313.8c0.7-2,2.8-7.6,2.8-14.4"/>
<path class="st15" d="M407.8,310.9c0,0,4.2-1.1,8.3,0.8"/>
<path class="st17" d="M309.1,287.3c13.1,2.2,26.2,13.2,31.8,19.7l-10.8,34.1l-17.3-15.9l-11.2,39.3c-21.8-6.2-53.4-1.3-66.3,1.9
	l14.1-46.2l-17.7,21l-16.2-33.2l59.6-27.2C292.6,298.8,309.1,286.9,309.1,287.3z"/>
<path class="st28" d="M248.9,321.7l-13.5,44.7c0,0,11.1-2.9,28.4-4.4c-5.8-2.5-12.6-5.8-17.2-13.4C244,344.4,248,328.5,248.9,321.7z
	"/>
<path class="st9" d="M274.5,314.7l-2.7-6.1l-2.6,6.1l-5.6-2.6l3.7,5.8l-2,5.1l5.3-1.7l2.4,5.8l1.5-5.8h8l-6-3.4l3.7-5.8L274.5,314.7
	z"/>
<path class="st15" d="M307,288c-4,2.4-14.9,5.4-26-2.5"/>
<path class="st15" d="M254,317.8c-1.8,1.1-6.1,3.9-8.8,6.8"/>
<path class="st15" d="M307,317.8c1,1.8,3.6,6.1,6,8.9"/>
<path class="st15" d="M251,361.7c0,0,32.2-1.6,53.8,2.3"/>
<path class="st29" d="M452.4,240.4c27.3,3.5,44,22.9,53.5,49.9c9.6,27,26.1,45.3,52.5,50.6"/>
<g>
	<path class="st30" d="M517,675.7h94.8c5.1-4.3-3.5-14.1-12.5-14.8c-3.9-0.3-8.8,0.5-14.5,1.7c-1.3-17.3-8.8-95.3-36.8-92.1
		c-31.6,3.5,0,34.3,8.9,52.6c6.6,13.5,13.6,32.9,16.8,42c-2.6,0.6-5.2,1.1-7.9,1.6c-4.2-12.9-19.8-56.1-39.6-53.6
		c-23.3,2.9-13.9,20.3,2.6,30.6c12.1,7.6,26.9,18.3,34,23.5c-6,1-12.2,1.6-18.5,1.5C528,668.4,520.1,673.2,517,675.7z"/>
</g>
</svg>
