<?xml version="1.0" encoding="utf-8"?>
<!-- Generator: Adobe Illustrator 24.1.3, SVG Export Plug-In . SVG Version: 6.00 Build 0)  -->
<svg version="1.1" id="图层_1" xmlns="http://www.w3.org/2000/svg" xmlns:xlink="http://www.w3.org/1999/xlink" x="0px" y="0px"
	 viewBox="0 0 150 23.6" style="enable-background:new 0 0 150 23.6;" xml:space="preserve">
<style type="text/css">
	.st0{fill:#FFFFFF;}
</style>
<path class="st0" d="M47.5,6.6l-4.6,1.6c-0.5-1.8-1.9-2.8-4.3-2.8c-3.1,0.3-5.4,2.5-6.7,6.5c-1,4.2,0.2,6.4,3.5,6.7
	c2.4,0,4.2-0.7,5.4-2.1l0.7-2.5h-6l1-3.7h10.2l-2,7.5c-2.2,2.9-5.7,4.4-10.5,4.5c-6.3-0.3-8.7-3.8-7.2-10.5
	c2.1-6.6,6.2-10,12.5-10.4C44.1,1.5,46.8,3.2,47.5,6.6z"/>
<path class="st0" d="M68.3,12c-2.1,6.6-6.4,10-12.8,10.4c-6.3-0.4-8.7-3.8-7.3-10.4c2.1-6.7,6.4-10.2,12.9-10.5
	C67.2,1.9,69.6,5.4,68.3,12z M63.2,12c1-4.2-0.1-6.4-3.3-6.6c-3.4,0.2-5.7,2.4-7,6.6c-1,4.2,0.1,6.3,3.4,6.5
	C59.7,18.5,62,16.3,63.2,12z"/>
<path class="st0" d="M77.9,15h-3.4l-1.9,7H68l5.4-20.2h8.5c4.9,0.1,6.8,2.2,5.9,6.3C86.6,12.7,83.3,15,77.9,15z M80.1,5.3h-3
	l-1.6,6.2h3c2.4-0.1,3.9-1.1,4.5-3.1C83.4,6.4,82.5,5.4,80.1,5.3z"/>
<path class="st0" d="M105.6,22h-5.1l-0.3-4.4h-7.7L89.9,22h-5l13-20.2h5.5L105.6,22z M100.3,14.1l-0.7-7c0-0.6,0-1.2,0-1.7h-0.1
	c-0.2,0.7-0.6,1.3-1,1.8l-4.1,6.9H100.3z"/>
<path class="st0" d="M108.1,15.7l4.7-0.9c-0.4,2.8,0.8,4.2,3.5,4.2c2-0.1,3.3-0.9,3.9-2.5c0.4-1.1-0.1-2-1.4-2.6
	c-1.4-0.6-2.6-0.9-3.7-1.1c-3.5-0.8-4.8-2.8-3.8-5.9c1.3-3.4,4.2-5.2,8.9-5.4c4.9-0.1,7.2,1.8,6.9,5.7L122.4,8c0.2-2-0.8-2.9-3-2.9
	c-1.8,0.1-2.9,0.7-3.4,1.9c-0.4,1.1,0.6,1.9,2.9,2.5c1.8,0.4,3.3,1,4.3,1.7c1.8,1.2,2.5,2.9,1.9,5.1c-1.2,3.9-4.4,5.9-9.6,6.1
	C110.3,22.5,107.9,20.2,108.1,15.7z"/>
<path class="st0" d="M126.9,15.7l4.7-0.9c-0.4,2.8,0.8,4.2,3.5,4.2c2-0.1,3.3-0.9,3.9-2.5c0.4-1.1-0.1-2-1.4-2.6
	c-1.4-0.6-2.6-0.9-3.7-1.1c-3.5-0.8-4.8-2.8-3.8-5.9c1.3-3.4,4.2-5.2,8.9-5.4c4.9-0.1,7.2,1.8,6.9,5.7L141,8.1c0.2-2-0.8-2.9-3-2.9
	c-1.8,0.1-2.9,0.7-3.4,1.9c-0.4,1.1,0.6,1.9,2.9,2.5c1.8,0.4,3.3,1,4.3,1.7c1.8,1.2,2.5,2.9,1.9,5.1c-1.2,3.9-4.4,5.9-9.6,6.1
	C129.1,22.5,126.6,20.2,126.9,15.7z"/>
<path class="st0" d="M148.8,22H144l1.2-4.6h4.8L148.8,22z"/>
<g>
	<polygon class="st0" points="11.8,0 14.8,8.9 23.7,11.8 14.8,14.8 11.8,23.7 8.9,14.8 0,11.8 8.9,8.9 	"/>
</g>
<polygon class="st0" points="11.8,23.7 11.8,0 14.8,8.9 23.7,11.8 14.8,14.8 "/>
<polygon class="st0" points="23.7,11.8 14.8,14.8 11.8,23.7 11.8,11.8 "/>
<polygon class="st0" points="0,11.8 8.9,14.8 11.8,23.7 11.8,11.8 "/>
</svg>
